<svg width="14" height="14" viewBox="0 0 14 14" fill="none" xmlns="http://www.w3.org/2000/svg">
<path fill-rule="evenodd" clip-rule="evenodd" d="M1.73357 2.91153C0.855973 4.04045 0.333374 5.45903 0.333374 6.99967C0.333374 7.30734 0.354216 7.61014 0.394564 7.90674L2.02194 7.47068C2.00745 7.31563 2.00004 7.15851 2.00004 6.99967C2.00004 5.91977 2.3424 4.91982 2.92449 4.10245L1.73357 2.91153ZM2.9121 1.73304L4.10303 2.92397C4.70545 2.495 5.40704 2.19625 6.16671 2.0688V0.384583C4.94949 0.536367 3.83419 1.01629 2.9121 1.73304ZM6.16671 13.6148C3.73967 13.3121 1.71778 11.7048 0.824962 9.51687L2.4524 9.0808C3.13089 10.561 4.5108 11.6527 6.16671 11.9305V13.6148ZM7.83337 11.9305C10.1981 11.5338 12 9.47717 12 6.99967C12 4.52217 10.1981 2.46553 7.83337 2.0688V0.384583C11.122 0.794665 13.6667 3.59999 13.6667 6.99967C13.6667 10.3994 11.122 13.2047 7.83337 13.6148V11.9305Z" fill="black" fill-opacity="0.54"/>
</svg>
