<svg width="16" height="16" viewBox="0 0 16 16" fill="none" xmlns="http://www.w3.org/2000/svg">
<path fill-rule="evenodd" clip-rule="evenodd" d="M11.2399 10.1792C12.0297 9.16322 12.5 7.88653 12.5 6.5C12.5 3.18629 9.81371 0.5 6.5 0.5C3.18629 0.5 0.5 3.18629 0.5 6.5C0.5 9.81371 3.18629 12.5 6.5 12.5C7.88654 12.5 9.16323 12.0297 10.1792 11.2399L14.091 15.1516L15.1517 14.091L11.2399 10.1792ZM6.5 11C8.98528 11 11 8.98528 11 6.5C11 4.01472 8.98528 2 6.5 2C4.01472 2 2 4.01472 2 6.5C2 8.98528 4.01472 11 6.5 11Z" fill="black" fill-opacity="0.38"/>
</svg>
