<svg width="28" height="30" viewBox="0 0 28 30" fill="none" xmlns="http://www.w3.org/2000/svg">
<path fill-rule="evenodd" clip-rule="evenodd" d="M17.76 3.00001H24.6667C26.1333 3.00001 27.3333 4.20001 27.3333 5.66668V27C27.3333 28.4667 26.1333 29.6667 24.6667 29.6667H3.33333C3.14666 29.6667 2.97333 29.6533 2.8 29.6267C2.28 29.52 1.81333 29.2533 1.45333 28.8933C1.21333 28.64 1.01333 28.36 0.879997 28.04C0.746664 27.72 0.666664 27.36 0.666664 27V5.66668C0.666664 5.29334 0.746664 4.94668 0.879997 4.64001C1.01333 4.32001 1.21333 4.02668 1.45333 3.78668C1.81333 3.42668 2.28 3.16001 2.8 3.05334C2.97333 3.01334 3.14666 3.00001 3.33333 3.00001H10.24C10.8 1.45334 12.2667 0.333344 14 0.333344C15.7333 0.333344 17.2 1.45334 17.76 3.00001ZM15 3.66668C15 3.12001 14.5467 2.66668 14 2.66668C13.4533 2.66668 13 3.12001 13 3.66668C13 4.21334 13.4533 4.66668 14 4.66668C14.5467 4.66668 15 4.21334 15 3.66668ZM3.33333 5.66668V27H24.6667V5.66668H3.33333ZM9.60666 7.00001L8.07666 8.53001L6.54666 7.00001L4.66666 8.88001L6.19666 10.41L4.66666 11.94L6.54666 13.82L8.07666 12.29L9.60666 13.82L11.4867 11.94L9.95666 10.41L11.4867 8.88001L9.60666 7.00001ZM20.0767 20.53L21.6067 19L23.4867 20.88L21.9567 22.41L23.4867 23.94L21.6067 25.82L20.0767 24.29L18.5467 25.82L16.6667 23.94L18.1967 22.41L16.6667 20.88L18.5467 19L20.0767 20.53ZM19.72 12.0867L21.4533 13.82L23.3333 11.94L18.3933 7.00001L13.4533 11.94L15.3333 13.82L17.0533 12.1V13.6667C17.0533 15.1394 15.8594 16.3333 14.3867 16.3333H11.3333C8.74067 16.3333 6.5801 18.1833 6.09966 20.6353C5.24795 21.0805 4.66666 21.9724 4.66666 23C4.66666 24.4728 5.86057 25.6667 7.33333 25.6667C8.80609 25.6667 10 24.4728 10 23C10 22.0761 9.53017 21.262 8.81641 20.7835C9.18088 19.7448 10.1701 19 11.3333 19H14.3867C17.3322 19 19.72 16.6122 19.72 13.6667V12.0867Z" fill="#1071FF"/>
</svg>
