<svg width="14" height="14" viewBox="0 0 14 14" fill="none" xmlns="http://www.w3.org/2000/svg">
<path fill-rule="evenodd" clip-rule="evenodd" d="M10.499 0.574864C10.0769 0.142176 9.38407 0.141183 8.96145 0.575545L1.31875 8.43054C1.21307 8.53916 1.14277 8.67724 1.11712 8.8266L0.42209 12.8729C0.380656 13.1142 0.459533 13.3604 0.633403 13.5327C0.807273 13.7049 1.05426 13.7815 1.29509 13.7379L5.23239 13.0239C5.38606 12.996 5.5272 12.9208 5.63611 12.8089L11.0796 7.21416C11.0814 7.21239 11.0831 7.21062 11.0848 7.20883L13.2788 4.95391C13.6899 4.53143 13.6899 3.85435 13.2788 3.43188L10.499 0.574864ZM10.5444 5.61327L11.9264 4.19289L9.73056 1.93605L8.34858 3.35643L10.5444 5.61327ZM7.30215 4.43192L2.55608 9.30983L2.08185 12.0707L4.72847 11.5908L9.498 6.68876L7.30215 4.43192Z" fill="black" fill-opacity="0.54"/>
</svg>
